<?xml version="1.0" encoding="UTF-8"?><svg id="a" xmlns="http://www.w3.org/2000/svg" viewBox="0 0 140 44"><defs><style>.b{fill:#fff;}.c{fill:#a6a6a6;}</style></defs><path class="c" d="M135.02,42.74H4.9c-2.7,0-4.9-2.21-4.9-4.91V6.16C0,3.46,2.2,1.26,4.9,1.26H135.02c2.7,0,4.98,2.2,4.98,4.9v31.67c0,2.7-2.28,4.91-4.98,4.91h0Z"/><path d="M139,37.83c0,2.19-1.78,3.97-3.98,3.97H4.9c-2.2,0-3.98-1.78-3.98-3.97V6.16c0-2.19,1.78-3.98,3.98-3.98H135.02c2.2,0,3.98,1.78,3.98,3.98v31.67h0Z"/><g><path class="b" d="M31.24,21.78c-.03-3.34,2.74-4.97,2.86-5.04-1.57-2.28-4-2.6-4.85-2.62-2.04-.21-4.02,1.22-5.06,1.22s-2.66-1.2-4.38-1.16c-2.22,.03-4.3,1.32-5.43,3.31-2.35,4.07-.6,10.05,1.65,13.34,1.13,1.61,2.44,3.41,4.16,3.35,1.69-.07,2.31-1.07,4.35-1.07s2.61,1.07,4.36,1.03c1.81-.03,2.95-1.62,4.03-3.24,1.3-1.85,1.82-3.66,1.84-3.76-.04-.01-3.51-1.34-3.55-5.34Z"/><path class="b" d="M27.93,11.95c.91-1.13,1.53-2.68,1.35-4.24-1.31,.06-2.95,.91-3.9,2.02-.84,.98-1.58,2.58-1.39,4.08,1.47,.11,2.99-.74,3.93-1.86Z"/></g><g><path class="b" d="M55.63,33.93h-2.36l-1.29-4.05h-4.48l-1.23,4.05h-2.29l4.44-13.8h2.74l4.46,13.8Zm-4.03-5.75l-1.17-3.6c-.12-.37-.35-1.24-.7-2.6h-.04c-.14,.59-.35,1.45-.66,2.6l-1.15,3.6h3.71Z"/><path class="b" d="M67.06,28.83c0,1.69-.46,3.03-1.37,4.01-.82,.87-1.84,1.31-3.05,1.31-1.31,0-2.25-.47-2.83-1.41h-.04v5.24h-2.21v-10.73c0-1.06-.03-2.16-.08-3.28h1.94l.12,1.58h.04c.74-1.19,1.86-1.78,3.36-1.78,1.17,0,2.15,.46,2.94,1.39,.79,.93,1.18,2.15,1.18,3.67Zm-2.25,.08c0-.97-.22-1.77-.66-2.4-.48-.66-1.12-.98-1.92-.98-.55,0-1.04,.18-1.48,.54-.44,.36-.73,.84-.87,1.42-.07,.27-.1,.5-.1,.67v1.66c0,.72,.22,1.33,.67,1.83s1.02,.75,1.73,.75c.83,0,1.48-.32,1.94-.96,.46-.64,.7-1.49,.7-2.54Z"/><path class="b" d="M78.5,28.83c0,1.69-.46,3.03-1.37,4.01-.82,.87-1.84,1.31-3.05,1.31-1.31,0-2.25-.47-2.82-1.41h-.04v5.24h-2.21v-10.73c0-1.06-.03-2.16-.08-3.28h1.94l.12,1.58h.04c.74-1.19,1.86-1.78,3.36-1.78,1.17,0,2.15,.46,2.94,1.39,.78,.93,1.18,2.15,1.18,3.67Zm-2.25,.08c0-.97-.22-1.77-.66-2.4-.48-.66-1.12-.98-1.92-.98-.55,0-1.04,.18-1.49,.54-.44,.36-.73,.84-.87,1.42-.07,.27-.1,.5-.1,.67v1.66c0,.72,.22,1.33,.66,1.83,.44,.5,1.02,.75,1.73,.75,.83,0,1.48-.32,1.94-.96,.46-.64,.7-1.49,.7-2.54Z"/><path class="b" d="M91.3,30.06c0,1.17-.41,2.13-1.23,2.87-.9,.81-2.15,1.21-3.76,1.21-1.49,0-2.68-.29-3.58-.86l.51-1.84c.97,.59,2.04,.88,3.2,.88,.83,0,1.48-.19,1.95-.56,.46-.38,.69-.88,.69-1.51,0-.56-.19-1.03-.57-1.41-.38-.38-1.02-.74-1.9-1.07-2.42-.9-3.62-2.22-3.62-3.96,0-1.13,.42-2.06,1.27-2.79,.84-.72,1.97-1.09,3.38-1.09,1.26,0,2.3,.22,3.13,.66l-.55,1.8c-.78-.42-1.66-.63-2.64-.63-.78,0-1.39,.19-1.82,.57-.37,.34-.55,.76-.55,1.25,0,.55,.21,1,.63,1.35,.37,.33,1.04,.68,2.01,1.07,1.19,.48,2.06,1.04,2.62,1.68,.56,.64,.84,1.44,.84,2.39Z"/><path class="b" d="M98.61,25.64h-2.44v4.83c0,1.23,.43,1.84,1.29,1.84,.4,0,.72-.03,.98-.1l.06,1.68c-.44,.16-1.01,.24-1.72,.24-.87,0-1.56-.27-2.05-.8-.49-.53-.74-1.43-.74-2.68v-5.02h-1.45v-1.66h1.45v-1.82l2.17-.66v2.48h2.44v1.66Z"/><path class="b" d="M109.61,28.87c0,1.53-.44,2.79-1.31,3.77-.92,1.01-2.13,1.52-3.65,1.52s-2.62-.48-3.49-1.45-1.3-2.19-1.3-3.66,.45-2.81,1.34-3.79c.89-.98,2.1-1.47,3.61-1.47s2.64,.48,3.52,1.45c.85,.94,1.27,2.15,1.27,3.64Zm-2.29,.07c0-.92-.2-1.7-.59-2.36-.46-.79-1.13-1.19-1.98-1.19s-1.56,.4-2.03,1.19c-.4,.66-.59,1.46-.59,2.4s.2,1.7,.59,2.36c.48,.79,1.15,1.19,2.01,1.19s1.51-.4,1.98-1.21c.41-.67,.61-1.46,.61-2.38Z"/><path class="b" d="M116.79,25.92c-.22-.04-.45-.06-.7-.06-.78,0-1.38,.29-1.8,.88-.37,.52-.55,1.17-.55,1.97v5.22h-2.21l.02-6.82c0-1.15-.03-2.19-.08-3.13h1.93l.08,1.9h.06c.23-.65,.6-1.18,1.11-1.58,.49-.36,1.02-.53,1.6-.53,.2,0,.39,.01,.55,.04v2.11Z"/><path class="b" d="M126.68,28.48c0,.4-.03,.73-.08,1h-6.63c.03,.98,.35,1.73,.96,2.25,.56,.46,1.28,.7,2.17,.7,.98,0,1.88-.16,2.68-.47l.35,1.53c-.94,.41-2.05,.61-3.34,.61-1.54,0-2.75-.45-3.64-1.36-.88-.91-1.32-2.13-1.32-3.65s.41-2.75,1.23-3.75c.86-1.06,2.02-1.6,3.48-1.6s2.52,.53,3.26,1.6c.58,.85,.88,1.89,.88,3.13Zm-2.11-.57c.01-.66-.13-1.22-.43-1.7-.38-.61-.97-.92-1.76-.92-.72,0-1.31,.3-1.76,.9-.37,.48-.59,1.05-.65,1.72h4.61Z"/></g><g><path class="b" d="M50.87,11.64c0,1.22-.37,2.14-1.1,2.76-.68,.57-1.64,.85-2.89,.85-.62,0-1.15-.03-1.59-.08v-6.67c.58-.09,1.2-.14,1.87-.14,1.19,0,2.08,.26,2.69,.77,.68,.58,1.02,1.42,1.02,2.51Zm-1.15,.03c0-.79-.21-1.4-.63-1.82-.42-.42-1.03-.63-1.84-.63-.34,0-.63,.02-.88,.07v5.07c.13,.02,.38,.03,.73,.03,.83,0,1.47-.23,1.93-.69s.68-1.14,.68-2.02Z"/><path class="b" d="M56.94,12.71c0,.75-.21,1.37-.64,1.85-.45,.5-1.05,.74-1.79,.74s-1.29-.24-1.72-.71c-.43-.48-.64-1.08-.64-1.8s.22-1.38,.66-1.86,1.03-.72,1.78-.72,1.29,.24,1.73,.71c.41,.46,.62,1.06,.62,1.79Zm-1.13,.04c0-.45-.1-.84-.29-1.16-.23-.39-.55-.58-.97-.58s-.77,.19-1,.58c-.19,.32-.29,.72-.29,1.18s.1,.84,.29,1.16c.24,.39,.56,.58,.99,.58s.74-.2,.97-.6c.2-.33,.3-.72,.3-1.17Z"/><path class="b" d="M65.09,10.3l-1.53,4.89h-1l-.63-2.12c-.16-.53-.29-1.06-.39-1.58h-.02c-.09,.54-.23,1.06-.39,1.58l-.67,2.12h-1.01l-1.44-4.89h1.12l.55,2.32c.13,.55,.24,1.07,.33,1.57h.02c.08-.41,.21-.93,.4-1.56l.69-2.33h.89l.66,2.28c.16,.56,.29,1.09,.39,1.61h.03c.07-.5,.18-1.04,.33-1.61l.59-2.28h1.07Z"/><path class="b" d="M70.72,15.19h-1.09v-2.8c0-.86-.33-1.29-.99-1.29-.32,0-.58,.12-.79,.36-.2,.24-.3,.52-.3,.84v2.9h-1.09v-3.49c0-.43-.01-.89-.04-1.4h.96l.05,.76h.03c.13-.24,.32-.43,.56-.59,.29-.18,.62-.27,.99-.27,.46,0,.84,.15,1.14,.44,.38,.36,.56,.9,.56,1.62v2.93Z"/><path class="b" d="M73.72,15.19h-1.09v-7.13h1.09v7.13Z"/><path class="b" d="M80.12,12.71c0,.75-.21,1.37-.64,1.85-.45,.5-1.05,.74-1.79,.74s-1.29-.24-1.72-.71c-.43-.48-.64-1.08-.64-1.8s.22-1.38,.66-1.86,1.03-.72,1.77-.72,1.29,.24,1.73,.71c.41,.46,.62,1.06,.62,1.79Zm-1.13,.04c0-.45-.1-.84-.29-1.16-.23-.39-.55-.58-.97-.58s-.77,.19-1,.58c-.19,.32-.29,.72-.29,1.18s.1,.84,.29,1.16c.24,.39,.56,.58,.99,.58s.74-.2,.97-.6c.2-.33,.3-.72,.3-1.17Z"/><path class="b" d="M85.38,15.19h-.98l-.08-.56h-.03c-.33,.45-.81,.67-1.43,.67-.46,0-.83-.15-1.12-.44-.26-.27-.38-.6-.38-1,0-.6,.25-1.05,.75-1.37,.5-.32,1.2-.47,2.11-.46v-.09c0-.64-.34-.97-1.02-.97-.48,0-.91,.12-1.27,.36l-.22-.71c.45-.28,1.02-.42,1.68-.42,1.28,0,1.92,.67,1.92,2.02v1.8c0,.49,.02,.88,.07,1.17Zm-1.13-1.68v-.75c-1.2-.02-1.8,.31-1.8,.99,0,.26,.07,.45,.21,.57,.14,.13,.32,.19,.53,.19,.24,0,.46-.08,.66-.23,.2-.15,.33-.34,.38-.58,.01-.05,.02-.12,.02-.19Z"/><path class="b" d="M91.55,15.19h-.96l-.05-.79h-.03c-.31,.6-.83,.9-1.57,.9-.59,0-1.08-.23-1.47-.69s-.58-1.06-.58-1.8c0-.79,.21-1.43,.63-1.92,.41-.46,.91-.68,1.51-.68,.66,0,1.12,.22,1.38,.66h.02v-2.81h1.09v5.81c0,.48,.01,.91,.04,1.32Zm-1.13-2.06v-.82c0-.14-.01-.26-.03-.34-.06-.26-.19-.48-.39-.66-.2-.18-.45-.27-.73-.27-.41,0-.72,.16-.96,.48-.23,.32-.35,.73-.35,1.24s.11,.88,.33,1.18c.24,.32,.55,.48,.95,.48,.36,0,.64-.13,.86-.4,.21-.25,.31-.55,.31-.89Z"/><path class="b" d="M100.85,12.71c0,.75-.21,1.37-.64,1.85-.45,.5-1.05,.74-1.79,.74s-1.29-.24-1.72-.71c-.43-.48-.64-1.08-.64-1.8s.22-1.38,.66-1.86,1.03-.72,1.78-.72,1.29,.24,1.73,.71c.41,.46,.62,1.06,.62,1.79Zm-1.13,.04c0-.45-.1-.84-.29-1.16-.23-.39-.55-.58-.98-.58s-.77,.19-1,.58c-.19,.32-.29,.72-.29,1.18s.1,.84,.29,1.16c.24,.39,.56,.58,.99,.58s.74-.2,.98-.6c.2-.33,.3-.72,.3-1.17Z"/><path class="b" d="M106.69,15.19h-1.09v-2.8c0-.86-.33-1.29-.99-1.29-.32,0-.58,.12-.78,.36s-.3,.52-.3,.84v2.9h-1.09v-3.49c0-.43-.01-.89-.04-1.4h.95l.05,.76h.03c.13-.24,.32-.43,.56-.59,.3-.18,.62-.27,.99-.27,.46,0,.83,.15,1.14,.44,.38,.36,.56,.9,.56,1.62v2.93Z"/><path class="b" d="M114.01,11.12h-1.2v2.37c0,.6,.21,.91,.63,.91,.19,0,.36-.02,.48-.05l.03,.82c-.21,.08-.5,.12-.84,.12-.43,0-.76-.13-1-.39-.24-.26-.36-.7-.36-1.32v-2.47h-.71v-.81h.71v-.9l1.07-.32v1.22h1.2v.82h0Z"/><path class="b" d="M119.76,15.19h-1.09v-2.78c0-.88-.33-1.31-.98-1.31-.5,0-.85,.25-1.04,.76-.03,.11-.05,.24-.05,.39v2.94h-1.09v-7.13h1.09v2.95h.02c.34-.54,.83-.8,1.47-.8,.45,0,.82,.15,1.12,.44,.37,.37,.55,.92,.55,1.64v2.91Z"/><path class="b" d="M125.7,12.51c0,.19-.01,.36-.04,.49h-3.26c.01,.48,.17,.85,.47,1.11,.28,.23,.63,.34,1.07,.34,.48,0,.92-.08,1.32-.23l.17,.75c-.46,.2-1.01,.3-1.64,.3-.76,0-1.35-.22-1.78-.67-.43-.45-.65-1.04-.65-1.8s.2-1.35,.6-1.84c.42-.52,.99-.78,1.71-.78s1.24,.26,1.6,.78c.29,.41,.44,.93,.44,1.54Zm-1.04-.28c0-.32-.06-.6-.21-.83-.19-.3-.48-.45-.86-.45-.35,0-.64,.15-.86,.44-.18,.24-.29,.52-.32,.85h2.26Z"/></g></svg>