<?xml version="1.0" encoding="UTF-8"?><svg id="a" xmlns="http://www.w3.org/2000/svg" viewBox="0 0 100 100"><defs><style>.b{stroke-dasharray:0 0 0 1 4 20;}.b,.c{stroke-linecap:round;}.b,.c,.d{fill:none;stroke:#103962;stroke-linejoin:round;stroke-width:2px;}</style></defs><path class="c" d="M40.36,1.82h-11.56c-4.26,0-7.71,3.45-7.71,7.71V90.47c0,4.26,3.45,7.71,7.71,7.71h38.55c4.26,0,7.71-3.45,7.71-7.71v-19.27"/><line class="c" x1="51.93" y1="86.62" x2="44.22" y2="86.62"/><line class="c" x1="59.64" y1="1.82" x2="59.64" y2="13.38"/><line class="c" x1="48.07" y1="1.82" x2="48.07" y2="17.24"/><line class="b" x1="71.2" y1="1.82" x2="71.2" y2="21.09"/><path class="c" d="M63.49,40.36h-7.71c-2.13,0-3.85,1.73-3.85,3.85s1.73,3.85,3.85,3.85h3.85c2.13,0,3.85,1.73,3.85,3.85s-1.73,3.85-3.85,3.85h-7.71"/><line class="c" x1="57.71" y1="36.51" x2="57.71" y2="40.36"/><line class="c" x1="57.71" y1="55.78" x2="57.71" y2="59.64"/><circle class="d" cx="57.71" cy="48.07" r="21.2"/></svg>