<?xml version="1.0" encoding="UTF-8"?><svg id="a" xmlns="http://www.w3.org/2000/svg" viewBox="0 0 100 100"><defs><style>.b{fill:none;stroke:#103962;stroke-linecap:round;stroke-linejoin:round;stroke-width:2px;}</style></defs><path class="b" d="M63.02,83.93H9.67c-4.49,0-8.16-3.67-8.16-8.16V13.15c0-4.49,3.67-8.16,8.16-8.16H90.33c4.49,0,8.16,3.67,8.16,8.16v62.62c0,4.49-3.67,8.16-8.16,8.16h-4.17"/><line class="b" x1="6.32" y1="19.84" x2="93.68" y2="19.84"/><line class="b" x1="11.89" y1="13.08" x2="11.89" y2="13.08"/><line class="b" x1="16.99" y1="13.08" x2="16.99" y2="13.08"/><line class="b" x1="22.1" y1="13.08" x2="22.1" y2="13.08"/><g><polyline class="b" points="63.62 71.92 70.9 95.02 75.48 88.03 81.99 94.54 84.11 92.42"/><polyline class="b" points="63.62 71.92 86.71 79.2 79.72 83.79 86.23 90.3 84.11 92.42"/></g><path class="b" d="M66.5,49.35c0,8.6-6.98,15.58-15.58,15.58s-15.58-6.97-15.58-15.58c0-8.61,6.98-15.58,15.58-15.58,8.6,0,15.58,6.97,15.58,15.58Z"/><g><path class="b" d="M55.26,52.04c-.02-.63-.24-1.26-.66-1.71-.96-1.03-2.37-1.14-3.63-1.29-.74-.09-1.53-.2-2.22-.49-.42-.18-.82-.43-1.11-.8-.37-.48-.49-1.09-.49-1.7,0-1.84,1.49-3.14,3.83-3.14s3.35,.98,3.82,1.98m.46,7.16c0,1.82-1.14,3.42-4.1,3.42-2.14,0-3.46-.87-4.12-2.17"/><line class="b" x1="50.92" y1="42.75" x2="50.92" y2="39.61"/><line class="b" x1="50.92" y1="59.08" x2="50.92" y2="55.94"/></g><path class="b" d="M72.01,45.02c2.39,11.65-5.11,23.03-16.76,25.42-11.65,2.39-23.03-5.11-25.42-16.76s5.11-23.03,16.76-25.42c7.42-1.53,14.74,.97,19.69,6,2.82,2.86,4.87,6.54,5.73,10.76Z"/></svg>