<?xml version="1.0" encoding="UTF-8"?><svg id="a" xmlns="http://www.w3.org/2000/svg" xmlns:xlink="http://www.w3.org/1999/xlink" viewBox="0 0 140 44"><defs><style>.f{fill:url(#e);}.g{fill:url(#d);}.h{fill:url(#c);}.i{fill:url(#b);}.j,.k,.l{fill:#fff;}.m{fill:#a6a6a6;}.k{stroke:#fff;stroke-miterlimit:10;stroke-width:.2px;}.n{opacity:.12;}.n,.l,.o{isolation:isolate;}.l{opacity:.25;}.o{opacity:.2;}</style><linearGradient id="b" x1="22.61" y1="35.71" x2="5.2" y2="18.3" gradientTransform="translate(0 46) scale(1 -1)" gradientUnits="userSpaceOnUse"><stop offset="0" stop-color="#00a0ff"/><stop offset="0" stop-color="#00a1ff"/><stop offset=".26" stop-color="#00beff"/><stop offset=".51" stop-color="#00d2ff"/><stop offset=".76" stop-color="#00dfff"/><stop offset="1" stop-color="#00e3ff"/></linearGradient><linearGradient id="c" x1="35.09" y1="24" x2="9.99" y2="24" gradientTransform="translate(0 46) scale(1 -1)" gradientUnits="userSpaceOnUse"><stop offset="0" stop-color="#ffe000"/><stop offset=".41" stop-color="#ffbd00"/><stop offset=".78" stop-color="orange"/><stop offset="1" stop-color="#ff9c00"/></linearGradient><linearGradient id="d" x1="25.75" y1="21.62" x2="2.15" y2="-1.98" gradientTransform="translate(0 46) scale(1 -1)" gradientUnits="userSpaceOnUse"><stop offset="0" stop-color="#ff3a44"/><stop offset="1" stop-color="#c31162"/></linearGradient><linearGradient id="e" x1="7.57" y1="44.56" x2="18.11" y2="34.02" gradientTransform="translate(0 46) scale(1 -1)" gradientUnits="userSpaceOnUse"><stop offset="0" stop-color="#32a071"/><stop offset=".07" stop-color="#2da771"/><stop offset=".48" stop-color="#15cf74"/><stop offset=".8" stop-color="#06e775"/><stop offset="1" stop-color="#00f076"/></linearGradient></defs><rect y="1.26" width="140" height="41.48" rx="5.19" ry="5.19"/><path class="m" d="M134.81,2.09c2.4,0,4.36,1.95,4.36,4.36v31.11c0,2.4-1.95,4.36-4.36,4.36H5.19c-2.4,0-4.36-1.95-4.36-4.36V6.44C.83,4.04,2.78,2.09,5.19,2.09H134.81m0-.83H5.19C2.33,1.26,0,3.59,0,6.44v31.11c0,2.85,2.33,5.19,5.19,5.19H134.81c2.85,0,5.19-2.33,5.19-5.19V6.44c0-2.85-2.33-5.19-5.19-5.19h0Z"/><g><path class="k" d="M49.17,11.88c0,.87-.26,1.56-.77,2.08-.59,.61-1.35,.92-2.29,.92s-1.66-.31-2.29-.93c-.63-.62-.94-1.4-.94-2.32s.31-1.69,.94-2.32c.63-.62,1.39-.93,2.29-.93,.45,0,.87,.09,1.28,.26,.41,.17,.73,.41,.97,.7l-.55,.55c-.41-.49-.98-.74-1.7-.74-.66,0-1.22,.23-1.7,.69-.48,.46-.72,1.06-.72,1.79s.24,1.33,.72,1.79c.48,.46,1.04,.69,1.7,.69,.69,0,1.27-.23,1.74-.69,.3-.3,.47-.72,.52-1.26h-2.26v-.75h3.01c.03,.16,.04,.32,.04,.47Z"/><path class="k" d="M53.95,9.28h-2.83v1.97h2.56v.75h-2.56v1.97h2.83v.76h-3.63v-6.22h3.63v.76Z"/><path class="k" d="M57.33,14.74h-.8v-5.46h-1.74v-.76h4.28v.76h-1.74v5.46Z"/><path class="k" d="M62.16,14.74v-6.22h.8v6.22h-.8Z"/><path class="k" d="M66.5,14.74h-.8v-5.46h-1.74v-.76h4.28v.76h-1.74v5.46Z"/><path class="k" d="M76.34,13.94c-.61,.63-1.37,.94-2.28,.94s-1.67-.31-2.28-.94c-.61-.63-.92-1.4-.92-2.31s.3-1.68,.92-2.31c.61-.63,1.37-.94,2.28-.94s1.66,.32,2.28,.95c.61,.63,.92,1.4,.92,2.3s-.31,1.68-.92,2.31Zm-3.97-.52c.46,.47,1.02,.7,1.69,.7s1.23-.23,1.69-.7c.46-.47,.69-1.06,.69-1.79s-.23-1.32-.69-1.79c-.46-.47-1.02-.7-1.69-.7s-1.23,.23-1.69,.7c-.46,.47-.69,1.06-.69,1.79s.23,1.32,.69,1.79Z"/><path class="k" d="M78.37,14.74v-6.22h.97l3.02,4.84h.03l-.03-1.2v-3.64h.8v6.22h-.83l-3.16-5.07h-.03l.03,1.2v3.88h-.8Z"/></g><path class="j" d="M70.66,23.82c-2.44,0-4.43,1.85-4.43,4.41s1.99,4.41,4.43,4.41,4.43-1.87,4.43-4.41-1.99-4.41-4.43-4.41Zm0,7.08c-1.34,0-2.49-1.1-2.49-2.67s1.15-2.67,2.49-2.67,2.49,1.09,2.49,2.67-1.15,2.67-2.49,2.67Zm-9.66-7.08c-2.44,0-4.43,1.85-4.43,4.41s1.99,4.41,4.43,4.41,4.43-1.87,4.43-4.41-1.99-4.41-4.43-4.41Zm0,7.08c-1.34,0-2.49-1.1-2.49-2.67s1.15-2.67,2.49-2.67,2.49,1.09,2.49,2.67-1.15,2.67-2.49,2.67Zm-11.49-5.73v1.87h4.48c-.13,1.05-.48,1.82-1.02,2.36-.65,.65-1.67,1.37-3.46,1.37-2.76,0-4.91-2.22-4.91-4.98s2.16-4.98,4.91-4.98c1.49,0,2.57,.58,3.37,1.34l1.32-1.32c-1.12-1.07-2.61-1.89-4.69-1.89-3.78,0-6.95,3.07-6.95,6.85s3.17,6.85,6.95,6.85c2.04,0,3.58-.67,4.78-1.92,1.24-1.24,1.62-2.97,1.62-4.38,0-.43-.03-.84-.1-1.17h-6.3Zm46.99,1.45c-.37-.99-1.49-2.81-3.78-2.81s-4.16,1.79-4.16,4.41c0,2.47,1.87,4.41,4.38,4.41,2.02,0,3.19-1.24,3.68-1.95l-1.5-1c-.5,.74-1.19,1.22-2.17,1.22s-1.69-.45-2.14-1.34l5.9-2.44-.2-.5Zm-6.01,1.47c-.05-1.7,1.32-2.57,2.31-2.57,.77,0,1.42,.38,1.64,.94l-3.94,1.64Zm-4.8,4.28h1.94v-12.96h-1.94v12.96Zm-3.17-7.57h-.07c-.43-.52-1.27-.99-2.32-.99-2.21,0-4.23,1.94-4.23,4.43s2.02,4.39,4.23,4.39c1.05,0,1.89-.47,2.32-1h.07v.63c0,1.69-.9,2.59-2.36,2.59-1.19,0-1.92-.85-2.22-1.57l-1.69,.7c.48,1.17,1.77,2.61,3.91,2.61,2.27,0,4.19-1.34,4.19-4.59v-7.92h-1.84v.72Zm-2.22,6.1c-1.34,0-2.46-1.12-2.46-2.66s1.12-2.69,2.46-2.69,2.36,1.14,2.36,2.69-1.04,2.66-2.36,2.66Zm25.28-11.49h-4.64v12.96h1.93v-4.91h2.7c2.15,0,4.25-1.55,4.25-4.03s-2.11-4.03-4.25-4.03Zm.05,6.25h-2.75v-4.44h2.75c1.45,0,2.27,1.2,2.27,2.22s-.82,2.22-2.27,2.22Zm11.96-1.86c-1.4,0-2.85,.62-3.45,1.98l1.72,.72c.37-.72,1.05-.95,1.77-.95,1,0,2.02,.6,2.03,1.67v.13c-.35-.2-1.1-.5-2.02-.5-1.85,0-3.74,1.02-3.74,2.92,0,1.73,1.52,2.85,3.22,2.85,1.3,0,2.02-.58,2.47-1.27h.07v1h1.87v-4.97c0-2.3-1.72-3.59-3.94-3.59Zm-.23,7.11c-.63,0-1.52-.32-1.52-1.1,0-1,1.1-1.38,2.05-1.38,.85,0,1.25,.18,1.77,.43-.15,1.2-1.18,2.05-2.3,2.05Zm10.97-6.82l-2.22,5.62h-.07l-2.3-5.62h-2.08l3.45,7.86-1.97,4.37h2.02l5.32-12.23h-2.15Zm-17.43,8.29h1.93v-12.96h-1.93v12.96Z"/><g><path class="i" d="M10.82,9.08c-.3,.32-.48,.81-.48,1.46v22.94c0,.64,.18,1.14,.48,1.46l.08,.07,12.85-12.85v-.3L10.9,9l-.08,.08Z"/><path class="h" d="M28.03,26.44l-4.28-4.28v-.3l4.28-4.28,.1,.06,5.07,2.88c1.45,.82,1.45,2.17,0,2.99l-5.07,2.88-.1,.06Z"/><path class="g" d="M28.13,26.38l-4.38-4.38-12.92,12.92c.48,.51,1.27,.57,2.16,.06l15.15-8.61"/><path class="f" d="M28.13,17.62L12.98,9.01c-.89-.5-1.68-.44-2.16,.06l12.92,12.92,4.38-4.38Z"/><g><path class="o" d="M28.03,26.28l-15.05,8.55c-.84,.48-1.59,.45-2.08,.01h0l-.08,.08h0l.08,.07h0c.48,.43,1.24,.47,2.08-.01l15.15-8.61-.1-.1Z"/><path class="n" d="M10.82,34.77c-.3-.32-.48-.81-.48-1.46v.15c0,.64,.18,1.14,.48,1.46l.08-.08-.08-.07Z"/></g><path class="n" d="M33.2,23.35l-5.17,2.94,.1,.1,5.07-2.88c.72-.41,1.09-.95,1.09-1.5h0c-.06,.49-.43,.97-1.09,1.35Z"/><path class="l" d="M12.98,9.16l20.22,11.49c.66,.37,1.03,.85,1.09,1.35h0c0-.54-.36-1.09-1.09-1.5L12.98,9.01c-1.45-.82-2.64-.14-2.64,1.52v.15c0-1.66,1.19-2.34,2.64-1.52Z"/></g></svg>