<?xml version="1.0" encoding="UTF-8"?><svg id="a" xmlns="http://www.w3.org/2000/svg" viewBox="0 0 100 100"><defs><style>.b{fill:none;stroke:#b3eaff;stroke-linecap:round;stroke-linejoin:round;stroke-width:2px;}</style></defs><path class="b" d="M67.53,79.22v11.69c0,4.3-3.49,7.79-7.79,7.79H20.78c-4.3,0-7.79-3.49-7.79-7.79V9.1c0-4.3,3.49-7.79,7.79-7.79H59.74c4.3,0,7.79,3.49,7.79,7.79v11.69"/><line class="b" x1="36.37" y1="87.01" x2="44.16" y2="87.01"/><line class="b" x1="40.26" y1="9.1" x2="40.26" y2="9.1"/><line class="b" x1="36.37" y1="59.74" x2="40.26" y2="59.74"/><line class="b" x1="48.05" y1="59.74" x2="51.95" y2="59.74"/><line class="b" x1="59.74" y1="59.74" x2="63.63" y2="59.74"/><line class="b" x1="71.42" y1="59.74" x2="75.32" y2="59.74"/><line class="b" x1="63.63" y1="48.05" x2="75.32" y2="48.05"/><path class="b" d="M27.54,28.58h56.61c1.58,0,2.86,1.28,2.86,2.86v37.14c0,1.58-1.28,2.86-2.86,2.86H27.54c-1.58,0-2.86-1.28-2.86-2.86V31.43c0-1.58,1.28-2.86,2.86-2.86Z"/><rect class="b" x="36.37" y="40.26" width="7.79" height="7.79"/></svg>