<?xml version="1.0" encoding="UTF-8"?><svg id="a" xmlns="http://www.w3.org/2000/svg" viewBox="0 0 100 100"><defs><style>.b{stroke-linecap:round;}.b,.c{fill:none;stroke:#ad1a11;stroke-linejoin:round;stroke-width:2px;}</style></defs><path class="c" d="M90.74,13.14S73.28,1.5,50,1.5,9.26,13.14,9.26,13.14v27.16c0,25.1,15.52,49.11,40.74,58.2,25.22-9.09,40.74-33.11,40.74-58.2V13.14Z"/><path class="c" d="M50,85.93c-17.57-8.11-29.1-25.94-29.1-45.63V20.03c5.99-2.86,16.65-6.89,29.1-6.89s23.09,4.03,29.1,6.89v20.27c0,19.7-11.53,37.53-29.1,45.63Z"/><path class="b" d="M55.82,38.36h-7.76c-2.14,0-3.88,1.74-3.88,3.88s1.74,3.88,3.88,3.88h3.88c2.14,0,3.88,1.74,3.88,3.88s-1.74,3.88-3.88,3.88h-7.76"/><line class="b" x1="50" y1="32.54" x2="50" y2="38.36"/><line class="b" x1="50" y1="53.88" x2="50" y2="59.7"/></svg>