<?xml version="1.0" encoding="UTF-8"?><svg id="a" xmlns="http://www.w3.org/2000/svg" viewBox="0 0 100 100"><defs><style>.b{fill:none;stroke:#ad1a11;stroke-linejoin:round;stroke-width:2px;}</style></defs><circle class="b" cx="50" cy="50" r="24.4"/><circle class="b" cx="50" cy="50" r="46.93"/><line class="b" x1="50" y1="3.07" x2="50" y2="25.6"/><line class="b" x1="73.46" y1="9.36" x2="62.2" y2="28.87"/><line class="b" x1="90.64" y1="26.54" x2="71.13" y2="37.8"/><line class="b" x1="96.93" y1="50" x2="74.4" y2="50"/><line class="b" x1="9.36" y1="73.46" x2="28.87" y2="62.2"/><line class="b" x1="90.64" y1="73.46" x2="71.13" y2="62.2"/><path class="b" d="M55.63,42.49h-7.51c-2.07,0-3.75,1.68-3.75,3.75s1.68,3.75,3.75,3.75h3.75c2.07,0,3.75,1.68,3.75,3.75s-1.68,3.75-3.75,3.75h-7.51"/><line class="b" x1="50" y1="36.86" x2="50" y2="42.49"/><line class="b" x1="50" y1="57.51" x2="50" y2="63.14"/></svg>