<?xml version="1.0" encoding="UTF-8"?><svg id="a" xmlns="http://www.w3.org/2000/svg" viewBox="0 0 100 100"><defs><style>.b{fill:none;stroke:#ad1a11;stroke-linecap:round;stroke-linejoin:round;stroke-width:2px;}</style></defs><line class="b" x1="57.16" y1="8.82" x2="57.16" y2="8.82"/><line class="b" x1="60.74" y1="73.28" x2="53.58" y2="73.28"/><path class="b" d="M87.31,69.11c-1.98,1.98-5.19,1.98-7.17,0-1.98-1.98-1.98-5.19,0-7.17l2.39-2.39c1.98-1.98,5.19-1.98,7.17,0s1.98,5.19,0,7.17l-2.39,2.39Z"/><path class="b" d="M85.52,57.47c-1.98,1.98-5.19,1.98-7.17,0s-1.98-5.19,0-7.17l4.18-4.18c1.98-1.98,5.19-1.98,7.17,0s1.98,5.19,0,7.17l-4.18,4.18Z"/><path class="b" d="M83.73,44.93c-1.98,1.98-5.19,1.98-7.17,0s-1.98-5.19,0-7.17l5.97-5.97c1.98-1.98,5.19-1.98,7.17,0s1.98,5.19,0,7.17l-5.97,5.97Z"/><path class="b" d="M80.44,30.3l12.84-12.83c1.98-1.98,1.98-5.19,0-7.17-1.98-1.98-5.19-1.98-7.17,0l-5.67,5.67"/><path class="b" d="M33.88,55.37c5.36-16.08,6.99-30.3-.45-34.6-2.24-1.29-5.02,.39-5.23,2.97-.96,11.44-5.11,19.2-8.31,23.61-2.6,3.58-3.91,7.93-3.91,12.36v9.25c0,1.62-.64,3.18-1.79,4.32h0"/><path class="b" d="M33.88,55.37v21.49c0,3.96,3.21,7.16,7.16,7.16h32.23c3.96,0,7.16-3.21,7.16-7.16v-7.47"/><polygon class="b" points="44.63 37.47 57.16 26.72 69.7 37.47 44.63 37.47"/><line class="b" x1="69.7" y1="51.79" x2="44.63" y2="51.79"/><line class="b" x1="48.21" y1="44.63" x2="48.21" y2="51.79"/><line class="b" x1="57.16" y1="44.63" x2="57.16" y2="51.79"/><line class="b" x1="66.12" y1="44.63" x2="66.12" y2="51.79"/><path class="b" d="M57.13,91.18c-3.23,1.73-6.8,2.9-10.59,3.36-2.47,.3-4.8,1.33-6.57,3.09l-.71,.71-26.86-26.86-7.16,7.16"/><path class="b" d="M80.44,33.88V8.82c0-3.96-3.21-7.16-7.16-7.16H41.05c-3.96,0-7.16,3.21-7.16,7.16v4.58"/></svg>