<?xml version="1.0" encoding="UTF-8"?><svg id="a" xmlns="http://www.w3.org/2000/svg" viewBox="0 0 100 100"><defs><style>.b{fill:none;stroke:#ad1a11;stroke-miterlimit:10;stroke-width:2px;}</style></defs><path class="b" d="M49.63,4.03H28.45l-.77,39.44-26.23-.95s-.36,1.11,.45,1.66c.8,.55,2.23,3.12,3.76,3.95,1.53,.83,3.5,4.16,5.55,5.26,2.05,1.1,2.92,2.1,3.41,4.65,.49,2.55,.72,5.23,3.24,6.76,2.52,1.53,6.54,5.29,8.53,4.93,1.99-.35,2.59-3.51,3.03-4.54,.43-1.03,1.6-2.66,5.1-2.46,3.5,.2,5.42,.84,8.08,3.04,2.66,2.2,7.47,12.7,9.64,14.35,2.17,1.65,1.66,2.22,2.88,5.52,1.23,3.3,1.66,5.3,4.48,6.4,2.82,1.09,5.06,2.7,6.72,2.6,1.66-.1,2.53-.37,3.91,.57,1.39,.94,1.52,.91,2.48,.45,.96-.45,.68-2.04-.17-5.67-.85-3.62-2.07-9.42,3.14-13.61,5.22-4.18,9.74-7.24,12.37-8.99,2.63-1.75,1.98-3.39,4.89-4.44,2.91-1.05,4.43-.69,4.35-1.71-.08-1.02-1.33-1.23-.13-2.58,1.21-1.35,.7-3.19,.66-4.32-.04-1.12,1.86-3.82-.09-6.96-1.95-3.14-1.35-4.07-2.41-5.09-1.06-1.02-1.16-.57-1.39-3.54-.23-2.97-.45-11.25-1.52-11.1-1.07,.15-2.72-.32-4.21-.9-1.49-.58-2.25-1.79-4.38-1.64-2.14,.15-4.63,.46-5.86,1.25-1.24,.78-3.29,.74-4.47,.13-1.18-.61-1.62-1.34-2.04-.29-.42,1.05-3.05-.31-4.28-.47-1.22-.16-2.04,1.19-2.52,.18-.48-1.02-1.01-1.46-2.17-1.52-1.16-.05-3.65,.07-4.62-.19-.96-.27-1.99-1.71-2.84-1.96-.85-.26-4.95-.12-5.02-1.27-.07-1.15-.38-16.92-.38-16.92Z"/></svg>