<?xml version="1.0" encoding="UTF-8"?><svg id="a" xmlns="http://www.w3.org/2000/svg" viewBox="0 0 100 100"><defs><style>.b{fill:none;stroke:#ad1a11;stroke-linecap:round;stroke-linejoin:round;stroke-width:2px;}</style></defs><path class="b" d="M11.25,49.86l-2.14-16.3c-.25-1.9-1.87-3.33-3.79-3.33h0c-2.11,0-3.83,1.71-3.83,3.83v27.33c0,1.91,.76,3.73,2.11,5.08l14.81,14.81c.67,.67,1.05,1.59,1.05,2.54v.31"/><path class="b" d="M44.61,84.14v-6.87c0-7.63-5.3-14.31-12.78-15.82-1.06-.21-2.2-.38-3.43-.49-1.69-.15-3.28-.87-4.47-2.07l-7.81-7.81c-1.66-1.66-4.37-1.98-6.19-.49-2.09,1.71-2.21,4.8-.34,6.66l12.51,12.51"/><path class="b" d="M88.75,49.86l2.14-16.3c.25-1.9,1.87-3.33,3.79-3.33h0c2.11,0,3.83,1.71,3.83,3.83v27.33c0,1.91-.76,3.73-2.11,5.08l-14.81,14.81c-.67,.67-1.05,1.59-1.05,2.54v.31"/><path class="b" d="M55.39,84.14v-6.87c0-7.63,5.3-14.31,12.78-15.82,1.06-.21,2.2-.38,3.43-.49,1.69-.15,3.28-.87,4.47-2.07l7.81-7.81c1.66-1.66,4.37-1.98,6.19-.49,2.09,1.71,2.21,4.8,.34,6.66l-12.51,12.51"/><circle class="b" cx="50" cy="28.44" r="8.98"/><path class="b" d="M30.24,12.27c0,5.95-4.83,10.78-10.78,10.78"/><path class="b" d="M69.76,12.27c0,5.95,4.83,10.78,10.78,10.78"/><path class="b" d="M69.76,44.61c0-5.95,4.83-10.78,10.78-10.78"/><path class="b" d="M30.24,44.61c0-5.95-4.83-10.78-10.78-10.78"/><rect class="b" x="19.46" y="12.27" width="61.09" height="32.34" rx="1" ry="1"/><line class="b" x1="26.64" y1="5.08" x2="73.36" y2="5.08"/><rect class="b" x="15.86" y="84.14" width="28.75" height="10.78"/><rect class="b" x="55.39" y="84.14" width="28.75" height="10.78"/></svg>